<svg width="360" height="174" viewBox="0 0 360 174" fill="none" xmlns="http://www.w3.org/2000/svg">
    <path
        fill-rule="evenodd"
        clip-rule="evenodd"
        d="M179.706 137.069C155.194 137.069 137.28 134.595 112.297 125.313C97.1249 119.677 77.1747 107.364 69.675 102.581C68.8562 102.059 68.4218 101.728 68.0922 101.477C67.6492 101.139 67.3954 100.946 66.6521 100.626C64.895 99.8694 63.7314 99.5974 61.8156 99.7442C60.215 99.8669 59.1724 99.9856 57.8859 100.92C56.3609 102.027 55.841 103.22 55.4677 105.034C55.0944 106.849 55.3356 108.03 56.0723 109.737C57.106 112.131 60.9088 114.439 60.9088 114.439C60.9088 114.439 72.0111 121.307 84.7224 127.941L82.7331 133.17C80.8179 139.079 80.3015 144.611 81.1838 149.764C82.0835 154.864 84.2636 159.311 87.724 163.103C91.2555 166.86 95.9221 169.678 101.724 171.559C107.472 173.421 112.851 173.859 117.861 172.871C122.942 171.846 127.342 169.532 131.063 165.93C134.8 162.273 137.627 157.491 139.542 151.581L140.588 147.436C153.868 149.945 166.58 150.882 179.706 150.882C204.123 150.882 227.107 147.639 254.974 137.069C272.933 130.258 298.503 114.439 298.503 114.439C298.503 114.439 302.306 112.131 303.34 109.737C304.076 108.03 304.317 106.849 303.944 105.034C303.571 103.22 303.051 102.027 301.526 100.92C300.239 99.9856 299.197 99.8669 297.596 99.7442C295.68 99.5973 294.517 99.8694 292.76 100.626C292.016 100.946 291.763 101.139 291.32 101.477C290.99 101.728 290.556 102.059 289.737 102.581C282.237 107.364 262.287 119.677 247.115 125.313C222.132 134.595 204.218 137.069 179.706 137.069ZM105.069 141.126C104.546 142.43 104.411 143.665 104.664 144.831C104.873 146.039 105.367 147.067 106.146 147.915C107.294 149.165 108.698 149.892 110.359 150.095C112.019 150.298 113.427 149.869 114.582 148.808C116.108 147.483 116.541 145.808 117.097 143.662C117.26 143.034 117.433 142.366 117.647 141.654C120.332 142.497 122.977 143.27 125.588 143.98L124.876 146.828C122.996 152.63 120.351 156.67 116.941 158.949C113.549 161.174 109.704 161.59 105.406 160.197C101.109 158.804 98.2386 156.212 96.7962 152.42C95.3538 148.628 95.5814 143.805 97.4791 137.949L98.8235 134.767L106.765 137.939L105.069 141.126Z"
        fill="rgb(255, 255, 255)"
    />
    <path
        d="M16.9774 6.17647C16.2172 4.41176 15.1614 3.10924 13.81 2.26891C12.3741 1.42857 10.8537 1.0084 9.24887 1.0084C6.7994 1.0084 4.64555 1.80672 2.78733 3.40336C0.929112 4.91597 0 6.76471 0 8.94958C0 10.1261 0.295621 11.3025 0.886872 12.479L34.9683 82.0589C35.813 83.8236 36.9532 85.1261 38.3891 85.9664C39.825 86.8908 41.3454 87.353 42.9502 87.353C45.3152 87.353 47.3846 86.5967 49.1584 85.0841C50.9321 83.5715 51.819 81.7227 51.819 79.5378C51.819 78.1933 51.5234 76.9328 50.9321 75.7563L42.5701 58.4874L65.1222 12.479C65.629 11.3025 65.8824 10.1681 65.8824 9.07563C65.8824 6.80672 64.911 4.87395 62.9683 3.27731C60.9412 1.68067 58.6606 0.882353 56.1267 0.882353C54.4374 0.882353 52.8748 1.34454 51.4389 2.26891C50.003 3.10924 48.8627 4.41176 48.0181 6.17647L32.3077 40.2101L16.9774 6.17647Z"
        fill="rgb(255, 255, 255)"
    />
    <path
        d="M342.771 6.17647C343.531 4.41176 344.587 3.10924 345.938 2.26891C347.374 1.42857 348.894 1.0084 350.499 1.0084C352.949 1.0084 355.102 1.80672 356.961 3.40336C358.819 4.91597 359.748 6.76471 359.748 8.94958C359.748 10.1261 359.452 11.3025 358.861 12.479L324.78 82.0589C323.935 83.8236 322.795 85.1261 321.359 85.9664C319.923 86.8908 318.403 87.353 316.798 87.353C314.433 87.353 312.363 86.5967 310.59 85.0841C308.816 83.5715 307.929 81.7227 307.929 79.5378C307.929 78.1933 308.225 76.9328 308.816 75.7563L317.178 58.4874L294.626 12.479C294.119 11.3025 293.866 10.1681 293.866 9.07563C293.866 6.80672 294.837 4.87395 296.78 3.27731C298.807 1.68067 301.087 0.882353 303.621 0.882353C305.311 0.882353 306.873 1.34454 308.309 2.26891C309.745 3.10924 310.885 4.41176 311.73 6.17647L327.44 40.2101L342.771 6.17647Z"
        fill="rgb(255, 255, 255)"
    />
    <path
        d="M105.546 62.1634C108.739 60.4685 110.756 58.6885 112.689 55.4681C112.689 58.4073 113.612 60.6327 115.459 62.1444C117.305 63.656 119.571 64.4118 122.256 64.4118C124.942 64.4118 127.166 63.656 128.928 62.1444C130.775 60.6327 131.698 58.4073 131.698 55.4681V29.0148C131.698 24.6479 132.747 21.2468 134.845 18.8114C136.943 16.376 139.755 15.1583 143.28 15.1583C146.133 15.1583 148.231 15.9981 149.574 17.6777C151.001 19.2733 151.714 22.0866 151.714 26.1175V55.4681C151.714 58.4073 152.637 60.6327 154.484 62.1444C156.33 63.656 158.596 64.4118 161.281 64.4118C164.051 64.4118 166.317 63.656 168.079 62.1444C169.842 60.6327 170.723 58.4073 170.723 55.4681V29.0148C170.723 24.6479 171.772 21.2468 173.87 18.8114C175.968 16.376 178.78 15.1583 182.305 15.1583C185.158 15.1583 187.256 15.9981 188.599 17.6777C190.026 19.2733 190.739 22.0866 190.739 26.1175V55.4681C190.739 58.4073 191.662 60.6327 193.508 62.1444C195.355 63.656 197.621 64.4118 200.306 64.4118C202.992 64.4118 205.401 63.656 207.164 62.1444C209.01 60.6327 209.933 58.4073 209.933 55.4681V29.0148C209.933 24.6479 210.982 21.2468 213.08 18.8114C215.179 16.376 217.99 15.1583 221.515 15.1583C224.368 15.1583 226.466 15.9981 227.809 17.6777C229.236 19.2733 229.949 22.0866 229.949 26.1175V55.4681C229.949 58.4073 230.873 60.6327 232.719 62.1444C234.565 63.656 236.831 64.4118 239.517 64.4118C242.286 64.4118 244.552 63.656 246.315 62.1444C248.077 60.6327 248.958 58.4073 248.958 55.4681V29.0148C248.958 24.6479 250.007 21.2468 252.105 18.8114C254.204 16.376 257.015 15.1583 260.54 15.1583C263.393 15.1583 265.491 15.9981 266.834 17.6777C268.261 19.2733 268.974 22.0866 268.974 26.1175V55.4681C268.974 58.4073 269.897 60.6327 271.744 62.1444C273.59 63.656 275.856 64.4118 278.542 64.4118C281.311 64.4118 283.577 63.656 285.34 62.1444C287.102 60.6327 287.983 58.4073 287.983 55.4681V26.3695C287.983 17.1318 286.179 10.4975 282.57 6.46654C278.961 2.35159 273.8 0.294118 267.086 0.294118C262.554 0.294118 258.484 1.34385 254.875 3.44332C251.35 5.4588 248.623 8.23009 246.692 11.7572C245.014 7.72622 242.622 4.82896 239.517 3.06541C236.495 1.21788 232.761 0.294118 228.313 0.294118C224.2 0.294118 220.508 1.1339 217.235 2.81348C214.046 4.49305 209.49 8.50258 207.476 11.6938C206.653 9.6285 205.606 7.88609 204.335 6.46654C200.726 2.35159 195.565 0.294118 188.851 0.294118C184.319 0.294118 180.248 1.34385 176.64 3.44332C173.115 5.4588 170.387 8.23009 168.457 11.7572C166.778 7.72622 164.387 4.82896 161.281 3.06541C158.26 1.21788 154.526 0.294118 150.078 0.294118C145.965 0.294118 142.273 1.1339 138.999 2.81348C135.81 4.49305 133.209 6.92843 131.194 10.1196V8.85993C131.194 6.2566 130.355 4.24111 128.677 2.81348C126.998 1.30186 124.9 0.54605 122.382 0.54605C119.697 0.54605 117.389 1.30186 115.459 2.81348C113.612 4.32509 112.689 6.46654 112.689 9.23784V35.8824C112.689 40.0351 111.555 43.3491 109.202 45.8916C106.933 48.4341 103.95 49.7053 100.252 49.7053C97.0588 49.7053 94.6639 48.8155 93.0672 47.0357C91.5546 45.256 90.7983 42.5017 90.7983 38.7727V9.02578C90.7983 6.22906 89.958 4.02558 88.2773 2.41535C86.5966 0.805117 84.2857 0 81.3445 0C78.4034 0 76.0504 0.805117 74.2857 2.41535C72.605 4.02558 71.7647 6.22906 71.7647 9.02578V38.3913C71.7647 47.2052 73.6555 53.8157 77.437 58.2226C81.3025 62.5448 87.1429 64.7059 94.958 64.7059C98.9076 64.7059 102.437 63.8584 105.546 62.1634Z"
        fill="rgb(255, 255, 255)"
    />
</svg>
