<svg
    width="159"
    height="39"
    viewBox="0 0 159 39"
    fill="none"
    xmlns="http://www.w3.org/2000/svg"
>
    <path
        d="M7.5036 2.75757C7.16761 1.9697 6.70097 1.38817 6.10367 1.01299C5.46904 0.637806 4.79707 0.450216 4.08778 0.450216C3.00517 0.450216 2.05322 0.806637 1.23193 1.51948C0.410645 2.1948 0 3.0202 0 3.99567C0 4.52092 0.130657 5.04618 0.391976 5.57143L15.4552 36.6364C15.8285 37.4242 16.3325 38.0058 16.9671 38.381C17.6017 38.7936 18.2737 39 18.983 39C20.0283 39 20.9429 38.6623 21.7268 37.987C22.5108 37.3117 22.9028 36.4863 22.9028 35.5108C22.9028 34.9105 22.7721 34.3478 22.5108 33.8225L18.815 26.1126L28.7824 5.57143C29.0064 5.04618 29.1184 4.53968 29.1184 4.05195C29.1184 3.03896 28.6891 2.17604 27.8305 1.4632C26.9345 0.75036 25.9266 0.393939 24.8067 0.393939C24.06 0.393939 23.3694 0.600288 22.7348 1.01299C22.1001 1.38817 21.5962 1.9697 21.2229 2.75757L14.2792 17.9524L7.5036 2.75757Z"
        fill="#fbab7e"
    />
    <path
        d="M151.496 2.75757C151.832 1.9697 152.299 1.38817 152.896 1.01299C153.531 0.637806 154.203 0.450216 154.912 0.450216C155.995 0.450216 156.947 0.806637 157.768 1.51948C158.589 2.1948 159 3.0202 159 3.99567C159 4.52092 158.869 5.04618 158.608 5.57143L143.545 36.6364C143.172 37.4242 142.668 38.0058 142.033 38.381C141.398 38.7936 140.726 39 140.017 39C138.972 39 138.057 38.6623 137.273 37.987C136.489 37.3117 136.097 36.4863 136.097 35.5108C136.097 34.9105 136.228 34.3478 136.489 33.8225L140.185 26.1126L130.218 5.57143C129.994 5.04618 129.882 4.53968 129.882 4.05195C129.882 3.03896 130.311 2.17604 131.17 1.4632C132.065 0.75036 133.073 0.393939 134.193 0.393939C134.94 0.393939 135.631 0.600288 136.265 1.01299C136.9 1.38817 137.404 1.9697 137.777 2.75757L144.721 17.9524L151.496 2.75757Z"
        fill="#fbab7e"
    />
    <path
        d="M46.6489 27.7538C48.0603 26.997 48.9516 26.2023 49.8059 24.7645C49.8059 26.0768 50.2139 27.0704 51.0299 27.7453C51.846 28.4201 52.8475 28.7576 54.0345 28.7576C55.2214 28.7576 56.2044 28.4201 56.9833 27.7453C57.7994 27.0704 58.2074 26.0768 58.2074 24.7645V12.9541C58.2074 11.0044 58.671 9.48593 59.5984 8.39862C60.5257 7.31131 61.7683 6.76766 63.3262 6.76766C64.5873 6.76766 65.5146 7.14259 66.1081 7.89246C66.7387 8.60484 67.054 9.86087 67.054 11.6606V24.7645C67.054 26.0768 67.462 27.0704 68.278 27.7453C69.0941 28.4201 70.0956 28.7576 71.2825 28.7576C72.5066 28.7576 73.5081 28.4201 74.2871 27.7453C75.066 27.0704 75.4555 26.0768 75.4555 24.7645V12.9541C75.4555 11.0044 75.9191 9.48593 76.8465 8.39862C77.7738 7.31131 79.0164 6.76766 80.5743 6.76766C81.8354 6.76766 82.7627 7.14259 83.3562 7.89246C83.9868 8.60484 84.3021 9.86087 84.3021 11.6606V24.7645C84.3021 26.0768 84.7101 27.0704 85.5261 27.7453C86.3422 28.4201 87.3437 28.7576 88.5306 28.7576C89.7176 28.7576 90.7825 28.4201 91.5615 27.7453C92.3775 27.0704 92.7855 26.0768 92.7855 24.7645V12.9541C92.7855 11.0044 93.2492 9.48593 94.1765 8.39862C95.1038 7.31131 96.3464 6.76766 97.9043 6.76766C99.1655 6.76766 100.093 7.14259 100.686 7.89246C101.317 8.60484 101.632 9.86087 101.632 11.6606V24.7645C101.632 26.0768 102.04 27.0704 102.856 27.7453C103.672 28.4201 104.674 28.7576 105.861 28.7576C107.085 28.7576 108.086 28.4201 108.865 27.7453C109.644 27.0704 110.034 26.0768 110.034 24.7645V12.9541C110.034 11.0044 110.497 9.48593 111.425 8.39862C112.352 7.31131 113.595 6.76766 115.152 6.76766C116.414 6.76766 117.341 7.14259 117.934 7.89246C118.565 8.60484 118.88 9.86087 118.88 11.6606V24.7645C118.88 26.0768 119.288 27.0704 120.104 27.7453C120.92 28.4201 121.922 28.7576 123.109 28.7576C124.333 28.7576 125.334 28.4201 126.113 27.7453C126.892 27.0704 127.282 26.0768 127.282 24.7645V11.773C127.282 7.64875 126.484 4.68677 124.889 2.88708C123.294 1.0499 121.013 0.131313 118.046 0.131313C116.043 0.131313 114.244 0.599981 112.649 1.53732C111.091 2.43716 109.885 3.67445 109.032 5.24917C108.29 3.44949 107.233 2.15596 105.861 1.3686C104.525 0.543741 102.875 0.131313 100.909 0.131313C99.0913 0.131313 97.4592 0.506248 96.0126 1.25612C94.6031 2.00599 92.5897 3.7961 91.6995 5.22085C91.3356 4.29878 90.8728 3.52086 90.3111 2.88708C88.7161 1.0499 86.4349 0.131313 83.4675 0.131313C81.4645 0.131313 79.6655 0.599981 78.0705 1.53732C76.5126 2.43716 75.3071 3.67445 74.454 5.24917C73.7121 3.44949 72.655 2.15596 71.2825 1.3686C69.9472 0.543741 68.2966 0.131313 66.3307 0.131313C64.5131 0.131313 62.8811 0.506248 61.4344 1.25612C60.0249 2.00599 58.875 3.0933 57.9848 4.51805V3.95565C57.9848 2.79335 57.6139 1.89351 56.872 1.25612C56.1302 0.581234 55.2029 0.243792 54.0901 0.243792C52.9031 0.243792 51.8831 0.581234 51.0299 1.25612C50.2139 1.931 49.8059 2.88708 49.8059 4.12437V16.0202C49.8059 17.8742 49.3045 19.3539 48.2645 20.489C47.2617 21.6241 45.9432 22.1917 44.309 22.1917C42.8977 22.1917 41.8392 21.7944 41.1335 20.9998C40.465 20.2052 40.1307 18.9755 40.1307 17.3106V4.02969C40.1307 2.78105 39.7593 1.79728 39.0165 1.07837C38.2736 0.359456 37.2523 0 35.9523 0C34.6524 0 33.6125 0.359456 32.8325 1.07837C32.0897 1.79728 31.7183 2.78105 31.7183 4.02969V17.1404C31.7183 21.0755 32.554 24.0268 34.2253 25.9943C35.9338 27.924 38.5151 28.8889 41.9692 28.8889C43.7148 28.8889 45.2747 28.5105 46.6489 27.7538Z"
        fill="#fbab7e"
    />
</svg>
